<?xml version="1.0" encoding="UTF-8" standalone="no"?>
<svg
   xmlns:dc="http://purl.org/dc/elements/1.1/"
   xmlns:cc="http://creativecommons.org/ns#"
   xmlns:rdf="http://www.w3.org/1999/02/22-rdf-syntax-ns#"
   xmlns:svg="http://www.w3.org/2000/svg"
   xmlns="http://www.w3.org/2000/svg"
   id="svg8"
   version="1.1"
   viewBox="0 0 120.22786 108.2332"
   height="108.2332mm"
   width="120.22786mm">
  <defs
     id="defs2" />
  <metadata
     id="metadata5">
    <rdf:RDF>
      <cc:Work
         rdf:about="">
        <dc:format>image/svg+xml</dc:format>
        <dc:type
           rdf:resource="http://purl.org/dc/dcmitype/StillImage" />
        <dc:title></dc:title>
      </cc:Work>
    </rdf:RDF>
  </metadata>
  <g
     transform="translate(-34.999618,-36.897979)"
     id="layer1">
    <path
       id="path4538"
       d="M 36.389153,132.95561 Z"
       style="fill:none;stroke:#000000;stroke-width:0.26458332px;stroke-linecap:butt;stroke-linejoin:miter;stroke-opacity:1" />
    <path
       id="path4540"
       d="m 97.541658,144.38297 c -0.590444,-0.1672 -0.524488,-1.24389 -0.524488,-1.24389 0.08495,-0.78228 0.911767,-1.42851 0.911767,-1.42851 -0.730215,-0.44008 0,0 -1.657705,-0.9827 -0.533082,0.28457 -0.759741,0.55929 -1.737154,0.72907 -0.501775,0.0872 -0.870955,-1.81032 -1.389495,-1.3119 -0.322515,0.30999 -0.424774,-0.2282 -0.861158,-0.45097 -0.328354,-0.16761 -2.011091,0.1582 -2.354788,-0.0144 -0.276059,-0.13863 -0.321275,-1.10365 -0.607992,-1.24103 -0.586992,-0.28127 -2.062327,-0.0206 -2.675322,-0.30257 -0.275152,-0.12655 -0.602706,-0.56986 -0.882198,-0.6949 -0.39701,-0.17763 -0.964734,-0.32018 -1.368362,-0.4938 -0.819694,-0.35258 -1.768424,-0.8124 -2.603627,-1.1373 -0.757214,-0.29456 -2.620662,-0.15309 -3.363696,-0.42215 -0.374633,-0.13566 -0.363083,-0.53444 -0.733023,-0.66128 -0.460953,-0.158 -1.617738,0.10791 -2.06564,-0.0365 -0.463547,-0.14946 -0.846396,-0.5396 -1.362335,-0.76725 -0.510402,-0.22521 -1.319443,-0.14718 -1.745436,-0.12388 -1.067543,0.0583 -0.936829,2e-5 -1.816334,-0.14126 -0.958368,-0.15394 -2.712196,-0.65567 -3.426159,-0.61767 -0.78794,0.042 -1.663833,1.06935 -1.596343,2.3603 0.07236,1.38409 0.785167,3.06118 0.795987,3.84332 0.03949,2.85333 -3.275973,2.12906 -5.481264,2.10286 -6.461258,-0.0767 -8.581195,0.35288 -10.752288,-0.34242 -0.788812,-0.25262 2.61231,-0.8161 1.938067,-1.55508 -0.417696,-0.45779 -2.324026,-0.64917 -2.53362,-1.15043 -0.181764,-0.43471 0.566907,-0.59866 1.004402,-1.10987 -0.419744,-0.60012 -1.775652,-1.07206 -1.877018,-1.22918 -0.156564,-0.24267 0.04268,-0.60358 0.420926,-0.74792 3.030864,-1.15656 6.018051,-0.54176 8.009821,-1.70993 0.48105,-1.44589 0.69365,-6.18272 0.49831,-6.8074 -1.781318,2.27147 -3.797334,2.63459 -4.459175,2.82175 -0.868918,0.24572 -2.015046,0.50577 -3.640941,0.65541 -1.329293,0.12238 -2.946525,0.044 -3.780564,0.0119 -0.532259,-0.0952 -1.735304,0.058 -2.215358,-0.42468 -0.184229,-0.6015 0.831132,-0.82826 1.52558,-1.23788 0.212336,-0.54992 -1.864007,-0.82987 -1.863823,-1.0391 2.89e-4,-0.32763 1.259263,-0.45224 1.517762,-0.87349 0.246874,-0.40231 -0.919261,-0.67589 -0.831993,-0.97231 0.03733,-0.12682 1.189864,-0.51736 1.719307,-0.48133 1.84462,0.0976 2.298926,0.14725 4.160723,-0.0283 0.754675,-1.0361 0.563135,-1.42849 0.731165,-2.6677 0.172782,-1.27426 -0.13667,-2.97132 -0.23492,-4.15918 -0.164382,-1.98743 -0.879815,-2.6367 -1.939867,-2.90914 0.139198,-1.29339 0.298476,-2.16611 0.554528,-2.9844 -1.229743,3.49918 -5.397032,12.45988 -9.127063,17.33121 -0.95344,1.24517 -4.08317,3.135 -4.08317,3.135 0,0 4.621754,-21.04464 4.432767,-22.74553 -0.188989,-1.7009 0.381973,-2.59871 0.287473,-2.7877 -0.09449,-0.18899 -1.101158,-0.15378 -1.089347,-1.12235 0.01183,-0.96856 1.09641,-1.55117 1.557068,-1.63386 0.460658,-0.0827 0.391872,-6.988715 0.250132,-7.224951 C 41.034037,97.121463 39.148606,85.9666 38.89576,85.057956 38.615349,84.050251 37.59669,72.906685 37.514131,71.584449 37.430814,70.250067 36.385392,54.545589 37.15978,53.772321 c 0.962833,-0.961441 1.819992,0.235539 1.819992,0.235539 1.002178,1.194279 0.885848,1.620157 1.24423,3.048296 0,0 1.873096,4.700912 2.014837,5.976582 0.141741,1.275669 2.126116,11.386532 2.173363,12.473214 0.04725,1.086681 1.559152,8.646205 1.559152,9.827381 0,1.181175 -0.04725,8.173735 0.141741,8.835193 0.188988,0.661459 0.708706,1.559152 1.511905,1.842634 0.8032,0.283482 1.27567,0.283482 1.795387,0.09449 0.519717,-0.188988 1.086682,-0.425223 1.228423,-0.897693 0.141741,-0.47247 3.449032,-9.496652 3.449032,-9.496652 0,0 3.665785,-10.144113 3.966463,-10.678652 0.300678,-0.534539 10.783468,-22.899217 10.783468,-22.899217 0,0 0.227376,-0.676223 0.888834,-0.817964 0.661459,-0.141741 1.464658,1.464657 1.464658,1.464657 0,0 0.519717,0.850447 0.377976,1.228423 -0.141741,0.377976 -0.755952,3.543527 -0.94494,3.96875 -0.188988,0.425223 -3.449033,8.787946 -3.449033,8.787946 L 62.77493,79.108517 c 0,0 -2.672695,7.41673 -2.873147,8.051495 -0.200452,0.634765 -3.741773,9.772042 -3.842,10.239764 -0.0631,0.357751 0.180074,0.580588 0.270481,0.683825 0.195712,0.270933 1.442579,1.264586 2.286097,2.063849 0,0 2.187201,2.38785 2.639406,3.35237 0.384355,0.8198 2.192743,4.059 2.648632,4.97158 0.39003,0.78075 3.4867,4.63293 5.137015,6.7683 0.293946,0.38034 0.98328,1.37715 2.069701,1.4339 2.756041,0.0554 11.813681,0.0539 14.949152,0.009 2.410843,-0.0345 5.894074,0.0621 8.913675,0.62731 1.310655,0.24532 5.934498,1.51922 9.592018,3.87578 1.72207,1.10955 5.05121,3.89753 6.72098,4.6878 0.73401,-0.55467 2.59135,-2.11462 3.58548,-5.54627 0.40855,-1.41027 0.97948,-2.22703 1.19819,-3.80953 0.20995,-1.5191 -0.0498,-3.58432 0.61849,-7.29213 0.12813,-0.71089 0.72054,-1.47972 0.86509,-2.28053 0.20942,-1.16015 0.89852,-4.64969 1.54266,-7.437613 0.10826,-0.468565 1.1353,0.983503 1.1353,0.983503 0,0 -0.29337,-3.097398 -0.30414,-5.366202 -0.006,-1.233737 0.67743,-3.415572 0.75877,-4.002491 0.19153,-1.382101 1.75333,0.792067 1.75333,0.792067 0,0 -0.39172,-1.595309 -0.39754,-2.967155 -7.6e-4,-0.17724 0.71264,-6.27576 2.38811,-8.581126 1.67547,-2.305366 2.01683,2.036626 2.16113,2.598459 0.13625,-0.528351 0.007,-2.689718 1.3979,-5.347851 0.28316,-0.54096 0.73641,-1.876847 0.79564,-3.415521 0.0643,-1.669888 -0.70674,-3.116539 0.12011,-3.060666 0.54964,0.03714 1.09064,-0.690566 2.06915,-0.699791 0.54384,1.15801 1.50604,3.175427 1.50604,3.175427 0,0 4.13867,-2.752581 5.63113,-0.934306 1.1233,1.368529 1.36143,4.336091 1.36143,4.336091 0,0 3.0217,-1.118462 3.95716,-0.245247 1.52724,1.425627 1.42519,2.819087 1.49111,2.956234 0.21916,0.456001 0.0616,1.247646 1.20753,1.965607 -0.12392,0.863261 -1.22239,1.749006 -1.22239,1.749006 l -4.41281,6.525315 c 0,0 2.97177,-2.613377 3.93539,-2.933619 -0.76029,1.495515 -2.08421,3.586377 -4.23736,5.486578 -1.30049,1.147717 -4.58349,4.981433 -5.75839,7.097849 -0.35167,0.633482 -1.16421,3.770812 -1.53803,4.402442 -1.77303,1.90154 -4.28574,4.65231 -5.39868,7.60597 -2.65115,3.03478 -10.45274,9.14207 -12.61186,12.33994 -0.28207,0.41777 -0.62955,1.60452 -2.45662,4.14516 -0.75756,1.05342 -1.62585,2.49424 -0.30507,3.93257 0.71213,0.77552 1.42712,1.24392 1.58826,2.17928 0.096,0.55737 0.0796,3.09478 -0.26911,4.47289 6.54004,3.71995 4.63835,4.94779 3.20702,5.30778 -0.37503,0.0943 -16.714661,0.62511 -16.714661,0.62511 0,0 -1.897794,-0.10751 -2.393041,-0.24775 z"
       style="fill:#ffad57;fill-opacity:1;stroke:#000000;stroke-width:1;stroke-linecap:butt;stroke-linejoin:miter;stroke-miterlimit:4;stroke-dasharray:none;stroke-opacity:1" />
    <path
       id="path4542"
       d="m 48.826802,104.18173 c -1.844311,0.0973 -1.828504,1.58692 -1.074452,2.51314 0.396613,0.48717 1.5389,0.59737 1.859555,0.3099 0.373106,-0.33449 0.459231,-0.48392 0.611648,-0.78833 0.108917,-0.21754 0.182733,-0.50496 0.137249,-0.85859 -0.103668,-0.80602 -0.713446,-1.21941 -1.534,-1.17612 z"
       style="fill:#ffffff;stroke:#000000;stroke-width:1;stroke-linecap:butt;stroke-linejoin:miter;stroke-miterlimit:4;stroke-dasharray:none;stroke-opacity:1" />
    <path
       id="path4544"
       d="m 39.545508,105.59277 c -0.305662,0.43856 -0.09841,1.12419 0.03817,1.26312 0.227809,0.23173 1.001506,0.49051 1.073137,0.49262 0.346228,0.0102 1.059968,-0.0895 1.383129,-0.30949 0.462115,-0.31455 0.639656,-1.20355 0.639656,-1.20355 -0.126575,-0.73077 -0.619524,-1.41912 -1.618121,-1.25282 -0.689722,0.11486 -1.071588,0.37253 -1.515971,1.01012 z"
       style="fill:#ffffff;stroke:#140000;stroke-width:1;stroke-linecap:butt;stroke-linejoin:miter;stroke-miterlimit:4;stroke-dasharray:none;stroke-opacity:1" />
    <path
       id="path4546"
       d="m 39.968258,65.912084 c 0,0 0.318824,4.94215 0.634765,7.683997 1.101042,6.268276 3.590943,19.044344 3.590943,19.044344"
       style="fill:none;stroke:#000000;stroke-width:1;stroke-linecap:butt;stroke-linejoin:miter;stroke-miterlimit:4;stroke-dasharray:none;stroke-opacity:1" />
    <path
       id="path4548"
       d="m 52.217782,96.313992 c 0,0 2.246657,-6.431762 3.580953,-9.563248 1.013369,-2.378295 2.34422,-4.612969 3.354538,-6.992562 1.890989,-4.453827 5.055431,-13.607143 5.055431,-13.607143"
       style="fill:none;stroke:#000000;stroke-width:1;stroke-linecap:butt;stroke-linejoin:miter;stroke-miterlimit:4;stroke-dasharray:none;stroke-opacity:1" />
    <path
       id="path4550"
       d="m 101.34487,131.06845 c 0,0 -0.50539,2.12783 -0.24435,3.32924 1.31391,0.74791 2.53342,1.31929 3.76936,2.07355 0.77841,0.47504 1.27132,0.63094 2.19188,1.63702 -0.68575,1.00271 -2.26786,1.5119 -2.26786,1.5119"
       style="fill:none;stroke:#000000;stroke-width:1;stroke-linecap:butt;stroke-linejoin:miter;stroke-miterlimit:4;stroke-dasharray:none;stroke-opacity:1" />
    <path
       id="path4552"
       d="m 148.34529,68.868778 c 0.60593,0.534205 1.77023,0.697645 1.77023,0.697645 -0.82958,0.929399 -1.66997,2.984287 -2.89454,4.521825 1.11762,-0.09109 1.39364,0.05157 2.61238,0.07537 -0.66414,0.789707 -1.2301,1.457656 -2.2608,2.432504 -0.19771,1.261681 -0.0236,0.188988 -0.22134,1.450669 -0.56525,0.634103 -1.01026,0.606601 -2.42974,1.682051 0,0 -0.60163,-2.14958 -1.50916,-2.96679 -1.24144,-1.117888 -3.93911,0.255803 -3.93911,0.255803 0,0 -0.3598,-3.630939 -1.48619,-4.547178 -1.75201,-1.425127 -5.50637,1.145393 -5.50637,1.145393 l -1.50604,-3.175427 c -1.1656,-1.341701 -1.97477,-3.972523 1.51818,-5.086856 0.3294,-0.105083 1.15232,0.351261 1.15232,0.351261 0,0 0.26719,-1.885558 1.57656,-3.944786 0,0 2.45607,-3.360878 3.87357,-2.885264 1.40232,0.470521 1.41741,4.204986 1.41741,4.204986 0,0 2.52744,-2.210698 3.82701,-1.700893 1.33988,0.525619 1.70089,3.96875 1.70089,3.96875 0,0 2.01478,-2.391091 3.16555,-1.937128 0.98811,0.389795 2.1337,1.720408 2.1337,1.720408 -1.3198,1.801912 -1.92771,2.802199 -2.99451,3.737657 z"
       style="fill:#ffc485;fill-opacity:1;stroke:#000000;stroke-width:1;stroke-linecap:butt;stroke-linejoin:miter;stroke-miterlimit:4;stroke-dasharray:none;stroke-opacity:1" />
    <path
       id="path4554"
       d="m 139.09524,58.874998 c 1.40232,0.470521 1.41741,4.204986 1.41741,4.204986 0,0 2.52744,-2.210698 3.82701,-1.700893 1.33988,0.525619 1.70089,3.96875 1.70089,3.96875 0,0 2.01478,-2.391091 3.16555,-1.937128 0.98811,0.389795 2.7361,1.011702 2.7361,1.011702 1.04512,-1.641106 1.64995,-2.788903 1.87804,-3.557196 0.5575,-1.877825 0.12274,-3.571599 0.37113,-4.214196 -0.86349,0.576977 -2.86238,1.537227 -4.59574,2.770389 2.78331,-5.203883 4.66589,-10.440539 4.63869,-11.567737 -1.45059,0.459725 -1.44463,0.410847 -3.22089,0.966788 1.99892,-2.551067 2.51088,-11.258163 2.51088,-11.258163 -2.37759,0.644209 -6.5479,6.530007 -8.02839,9.31602 -0.30735,-0.910671 -0.60427,-1.412135 -0.97212,-2.149246 -2.26276,2.256522 -4.33631,8.919892 -5.98175,11.132738 -1.14927,-0.331076 -1.25854,-1.216726 -2.00524,-1.467048 -1.30639,2.413063 -1.05248,4.408097 -1.13139,6.546985 0,0 2.27232,-2.542365 3.68982,-2.066751 z"
       style="fill:#ffe5ca;fill-opacity:1;stroke:#000000;stroke-width:1;stroke-linecap:butt;stroke-linejoin:miter;stroke-miterlimit:4;stroke-dasharray:none;stroke-opacity:1" />
  </g>
</svg>
